<?xml version="1.0" encoding="UTF-8" standalone="no"?>
<!-- Created with Inkscape (http://www.inkscape.org/) -->

<svg
   xmlns:dc="http://purl.org/dc/elements/1.1/"
   xmlns:cc="http://creativecommons.org/ns#"
   xmlns:rdf="http://www.w3.org/1999/02/22-rdf-syntax-ns#"
   xmlns:svg="http://www.w3.org/2000/svg"
   xmlns="http://www.w3.org/2000/svg"
   xmlns:sodipodi="http://sodipodi.sourceforge.net/DTD/sodipodi-0.dtd"
   xmlns:inkscape="http://www.inkscape.org/namespaces/inkscape"
   width="162.67917mm"
   height="30.733187mm"
   viewBox="0 0 162.67917 30.733187"
   version="1.1"
   id="svg3810"
   inkscape:version="0.92.1 r15371"
   sodipodi:docname="gulbac-logo.svg">
  <defs
     id="defs3804" />
  <sodipodi:namedview
     id="base"
     pagecolor="#ffffff"
     bordercolor="#666666"
     borderopacity="1.0"
     inkscape:pageopacity="0.0"
     inkscape:pageshadow="2"
     inkscape:zoom="0.98994949"
     inkscape:cx="401.57366"
     inkscape:cy="98.551411"
     inkscape:document-units="mm"
     inkscape:current-layer="layer1"
     showgrid="false"
     fit-margin-top="5"
     fit-margin-left="5"
     fit-margin-right="5"
     fit-margin-bottom="5"
     inkscape:pagecheckerboard="true"
     inkscape:window-width="1366"
     inkscape:window-height="704"
     inkscape:window-x="0"
     inkscape:window-y="27"
     inkscape:window-maximized="1" />
  <metadata
     id="metadata3807">
    <rdf:RDF>
      <cc:Work
         rdf:about="">
        <dc:format>image/svg+xml</dc:format>
        <dc:type
           rdf:resource="http://purl.org/dc/dcmitype/StillImage" />
        <dc:title></dc:title>
      </cc:Work>
    </rdf:RDF>
  </metadata>
  <g
     inkscape:label="Capa 1"
     inkscape:groupmode="layer"
     id="layer1"
     transform="translate(-24.493753,-11.918735)">
    <path
       style="fill:#ffffff;stroke:none;stroke-width:0.14644432;stroke-opacity:1"
       d="m 29.493753,22.804806 c 0.03602,-3.029028 2.377967,-5.608045 5.394932,-5.656039 l 17.179466,-0.123429 v 4.551594 l -16.171104,-0.05562 c -0.953894,0.02119 -1.743227,0.640768 -1.655333,1.920662 l -0.04874,7.975645 c -0.01112,0.669957 0.664289,1.521718 2.3415,1.538988 l 11.021629,0.02119 -5.03e-4,-3.543401 -6.589443,0.03178 0.03231,-4.68302 11.069168,0.07575 -0.03761,12.7724 -15.812467,-0.03708 c -2.769055,0.04768 -6.707834,-2.251482 -6.687402,-4.67089 z"
       id="rect3744"
       inkscape:connector-curvature="0"
       sodipodi:nodetypes="ccccccccccccccccc" />
    <path
       sodipodi:nodetypes="ccccccccccccc"
       inkscape:connector-curvature="0"
       id="path3771"
       d="m 54.100867,17.083662 4.795759,-0.0106 -0.101762,15.184551 c 0.02755,0.381939 0.167926,0.846729 1.421747,0.90749 l 12.858381,0.01059 c 0.952046,0.03178 1.33247,-0.38088 1.337248,-0.919885 l 0.122793,-15.247218 4.676648,0.01589 -0.127137,15.67821 c -0.02119,2.049653 -2.525794,4.98942 -5.485141,4.886969 l -12.713026,0.0028 c -6.247219,0.07416 -6.763356,-4.155192 -6.800988,-5.200996 z"
       style="fill:#ffffff;stroke:none;stroke-width:0.14644432;stroke-opacity:1" />
    <rect
       style="fill:#ffffff;stroke:none;stroke-width:0.14597678;stroke-opacity:1"
       id="rect3773"
       width="5.5324626"
       height="12.527904"
       x="81.097084"
       y="16.959042" />
    <rect
       style="fill:#ffffff;stroke:none;stroke-width:0.14597678;stroke-opacity:1"
       id="rect3775"
       width="22.51885"
       height="4.8719625"
       x="81.053833"
       y="32.705849" />
    <path
       style="fill:#ffffff;stroke:none;stroke-width:0.14644432;stroke-opacity:1"
       d="m 126.15931,17.068194 -20.55468,0.01589 -0.14605,20.536521 4.62613,-0.02649 0.0688,-8.321456 15.69848,0.04768 c 0.78056,0.08741 0.56155,3.112408 0.065,3.236684 l -13.09367,-0.04238 -0.0286,5.076456 12.30814,-0.0022 c 5.87489,-0.03178 7.99887,-8.10453 3.20115,-10.496444 3.47539,-1.674282 2.77535,-10.047176 -2.1447,-10.02498 z m -15.88538,4.559592 h 15.32386 c 0.78403,-0.03708 0.51501,3.381567 0,3.389566 h -15.32386 z"
       id="path3777"
       inkscape:connector-curvature="0" />
    <path
       sodipodi:nodetypes="ccccccccccccc"
       inkscape:connector-curvature="0"
       id="path3785"
       d="m 159.5985,22.804806 c 0.036,-3.029028 2.37799,-5.608045 5.39496,-5.656039 l 17.17946,-0.123429 v 4.551594 l -16.1711,-0.05562 c -0.95391,0.02119 -1.74323,0.640768 -1.65535,1.920662 l -0.0618,8.505804 c 0.0148,0.522849 0.74463,1.07192 2.3549,1.008829 l 15.30601,-0.03178 -0.0403,4.727094 -15.74321,-0.04238 c -3.10985,-0.03178 -6.66076,-2.853897 -6.64032,-5.273358 z"
       style="fill:#ffffff;stroke:none;stroke-width:0.14644432;stroke-opacity:1" />
    <path
       style="fill:#ffffff;stroke:none;stroke-width:0.16184203;stroke-opacity:1"
       d="m 150.06786,16.999381 c 5.65423,-0.07098 7.51881,1.895977 7.55063,5.903743 l 0.097,14.635586 h -4.91638 l -0.006,-6.907168 -12.43023,-0.02119 0.0381,-4.456241 12.44551,0.05562 0.0196,-3.022723 c -0.0254,-0.953895 -0.0328,-1.743201 -1.5961,-1.655318 l -12.79846,-0.06198 c -0.63837,0.01589 -1.30915,-0.0588 -1.23214,1.551542 l 0.0408,14.556284 -4.75583,-0.04238 0.054,-15.743263 c 0.0366,-3.109812 2.46807,-4.893431 5.85147,-4.872984 z"
       id="path3787"
       inkscape:connector-curvature="0"
       sodipodi:nodetypes="ccccccccccccccccc" />
  </g>
</svg>
